<svg xmlns="http://www.w3.org/2000/svg" width="256" height="256" viewBox="0 0 256 256" role="img" aria-label="Open Financial Terminal">
  <title>Open Financial Terminal</title>

  <!-- white squircle (superellipse n=5) tile -->
  <path fill="#ffffff" d="M 252.0,128.0 L 251.8,174.7 L 251.2,189.6 L 250.3,200.2 L 249.0,208.7 L 247.2,215.9 L 245.1,222.0 L 242.5,227.3 L 239.5,231.9 L 235.9,235.9 L 231.9,239.5 L 227.3,242.5 L 222.0,245.1 L 215.9,247.2 L 208.7,249.0 L 200.2,250.3 L 189.6,251.2 L 174.7,251.8 L 128.0,252.0 L 81.3,251.8 L 66.4,251.2 L 55.8,250.3 L 47.3,249.0 L 40.1,247.2 L 34.0,245.1 L 28.7,242.5 L 24.1,239.5 L 20.1,235.9 L 16.5,231.9 L 13.5,227.3 L 10.9,222.0 L 8.8,215.9 L 7.0,208.7 L 5.7,200.2 L 4.8,189.6 L 4.2,174.7 L 4.0,128.0 L 4.2,81.3 L 4.8,66.4 L 5.7,55.8 L 7.0,47.3 L 8.8,40.1 L 10.9,34.0 L 13.5,28.7 L 16.5,24.1 L 20.1,20.1 L 24.1,16.5 L 28.7,13.5 L 34.0,10.9 L 40.1,8.8 L 47.3,7.0 L 55.8,5.7 L 66.4,4.8 L 81.3,4.2 L 128.0,4.0 L 174.7,4.2 L 189.6,4.8 L 200.2,5.7 L 208.7,7.0 L 215.9,8.8 L 222.0,10.9 L 227.3,13.5 L 231.9,16.5 L 235.9,20.1 L 239.5,24.1 L 242.5,28.7 L 245.1,34.0 L 247.2,40.1 L 249.0,47.3 L 250.3,55.8 L 251.2,66.4 L 251.8,81.3 Z"/>

  <!-- "OFT" wordmark in near-black; scaled to 1/φ (golden) tile width, centered, even optical gaps -->
  <g fill="#14171c" transform="translate(128,128) scale(0.942) translate(-128,-128)">
    <ellipse cx="67" cy="128" rx="15" ry="34" fill="none" stroke="#14171c" stroke-width="16"/>
    <rect x="109" y="86" width="15" height="84" rx="2"/>
    <rect x="109" y="86" width="40" height="15" rx="2"/>
    <rect x="109" y="120" width="33" height="14" rx="2"/>
    <rect x="168" y="86" width="44" height="15" rx="2"/>
    <rect x="183" y="86" width="14" height="84" rx="2"/>
  </g>
</svg>
